<svg data-v-0dd9719b="" version="1.0" xmlns="http://www.w3.org/2000/svg" xmlns:xlink="http://www.w3.org/1999/xlink" width="100%" height="100%" viewBox="0 0 340.000000 250.000000" preserveAspectRatio="xMidYMid meet" color-interpolation-filters="sRGB" style="margin: auto;"> <rect data-v-0dd9719b="" x="0" y="0" width="100%" height="100%" fill="#fff" fill-opacity="1" class="background"></rect> <rect data-v-0dd9719b="" x="0" y="0" width="100%" height="100%" fill="url(#watermark)" fill-opacity="1" class="watermarklayer"></rect> <g data-v-0dd9719b="" fill="#333" class="icon-text-wrapper icon-svg-group iconsvg" transform="translate(47.42500305175781,96.29874610900879)"><g class="iconsvg-imagesvg" transform="translate(0,5.719083786010742)"><g><rect fill="#333" fill-opacity="0" stroke-width="2" x="0" y="0" width="60" height="45.96433167861739" class="image-rect"></rect> <svg x="0" y="0" width="60" height="45.96433167861739" filtersec="colorsb792544847" class="image-svg-svg primary" style="overflow: visible;"><svg xmlns="http://www.w3.org/2000/svg" viewBox="0 0 129.10000610351562 98.9000015258789"><path fill="#006937" d="M129.1 98.9h-14.7v-64L72.7 75.6v23.3H57.9V69.6L129.1 0v98.9z"></path><path fill="#009247" d="M102.3 98.9H87.5v-64L45.8 75.6v23.3H31V69.6L102.3 0v98.9z"></path><path fill="#3bb44a" d="M71.2 98.9H56.5v-64L14.8 75.6v23.3H0V69.6L71.2 0v98.9z"></path></svg></svg> <!----></g></g> <g transform="translate(67,0)"><g data-gra="path-name" fill-rule="" class="tp-name iconsvg-namesvg" transform="translate(0,0)"><g transform="scale(1)"><g><path d="M42.71-9.76L43.15-9.67 42.1-2.07Q44.34 1.58 43.2 2.64L43.2 2.64Q42.23 3.65 40.72 3.47 39.2 3.3 37.81 2.59 36.43 1.89 35.29 0.83L35.29 0.83Q32.34-1.67 30.06-5.14L30.06-5.14Q24.26 0.66 16.13 3.6L16.13 3.6 15.78 3.08Q23.12-1.23 28.08-8.66L28.08-8.66Q24.43-16.26 23.6-27.73L23.6-27.73 10.94-27.73 10.94-20.52 16.26-20.52 18.76-23.03 23.29-19.25Q22.81-18.68 21.53-18.5L21.53-18.5Q21.31-11.16 20.74-8.09 20.17-5.01 18.72-3.82L18.72-3.82Q16.88-2.37 13.84-2.37L13.84-2.37Q13.84-4.88 13.23-5.71L13.23-5.71Q12.44-6.64 10.46-7.16L10.46-7.16 10.46-7.73Q12.57-7.56 14.11-7.56L14.11-7.56Q14.94-7.56 15.29-7.91L15.29-7.91Q16.39-8.88 16.66-19.25L16.66-19.25 10.94-19.25Q10.94-16.61 10.81-14.61 10.68-12.61 10.13-9.76 9.58-6.9 8.61-4.66 7.65-2.42 5.8 0 3.96 2.42 1.36 4.22L1.36 4.22 0.97 3.82Q3.87-0.79 4.77-6.42 5.67-12.04 5.67-19.29L5.67-19.29 5.67-31.16 11.73-28.96 23.47-28.96Q23.16-34.28 23.16-38.19L23.16-38.19 30.01-37.53Q29.93-36.43 28.39-36.21L28.39-36.21Q28.3-32.52 28.52-28.96L28.52-28.96 35.29-28.96 36.91-31.03Q35.99-30.94 35.16-31.38L35.16-31.38Q34.67-32.78 33.33-34.28 31.99-35.77 30.59-36.74L30.59-36.74 30.89-37.09Q32.39-37.18 33.64-37.07 34.89-36.96 35.77-36.67 36.65-36.39 37.31-35.97 37.97-35.55 38.34-35.09 38.72-34.63 38.89-34.12 39.07-33.62 39.02-33.13 38.98-32.65 38.76-32.26L38.76-32.26Q40.74-30.81 43.46-28.39L43.46-28.39Q43.33-27.73 42.23-27.73L42.23-27.73 28.56-27.73Q29.14-19.69 31.25-14.19L31.25-14.19Q33.44-18.81 34.63-24.04L34.63-24.04 41.66-21.71Q41.35-20.79 39.86-20.83L39.86-20.83Q37.4-14.24 33.66-9.23L33.66-9.23Q35.6-6.2 38.36-4.09L38.36-4.09Q38.85-3.6 39.18-3.65 39.51-3.69 39.86-4.26L39.86-4.26Q41.48-6.9 42.71-9.76L42.71-9.76ZM63.46-23.29L65.43-23.29 67.68-26.19Q70.05-24.35 71.59-22.85L71.59-22.85 71.59-33.35Q71.1-33 70.14-33.18L70.14-33.18Q67.28-27.95 63.46-23.29L63.46-23.29ZM62.84-29.75L62.84-29.75 58.89-29.75 58.89-23.55Q61-26.41 62.84-29.75ZM56.29-14.9L62.23-14.9 63.37-16.13Q62.36-15.95 61.35-16.66L61.35-16.66Q61.22-17.71 60.07-19.64L60.07-19.64Q57.88-17.45 55.15-15.34L55.15-15.34 56.29-14.9ZM55.94-6.9L55.94-1.23 62.67-1.23 62.67-6.9 55.94-6.9ZM55.94-8.13L62.67-8.13 62.67-13.62 55.94-13.62 55.94-8.13ZM81.39-34.15L84.2-36.91 89.47-32.04Q88.99-31.42 87.41-31.42L87.41-31.42Q82.92-23.64 80.29-20.48L80.29-20.48Q84.51-18.19 86.57-15.07 88.64-11.95 88.64-8.79L88.64-8.79Q88.64-5.23 86.81-3.32 84.99-1.41 80.9-1.32L80.9-1.32Q80.9-4.7 80.2-5.67L80.2-5.67Q79.58-6.55 77.74-6.86L77.74-6.86 77.74-7.43 81.43-7.43Q82.09-7.43 82.49-7.65L82.49-7.65Q83.63-8.35 83.63-10.37L83.63-10.37Q83.63-15.95 79.1-20.35L79.1-20.35Q80.77-26.32 81.78-32.92L81.78-32.92 76.73-32.92 76.73 2.55Q76.73 2.77 76.25 3.12 75.76 3.47 74.73 3.82 73.7 4.17 72.55 4.17L72.55 4.17 71.59 4.17 71.59-22.41Q71.32-22.02 70.58-22.02L70.58-22.02 62.27-22.02 61.44-21.01Q63.24-20.74 64.25-20.02 65.26-19.29 65.28-18.52 65.3-17.75 64.95-17.05L64.95-17.05 69.3-13.75Q68.82-13.18 67.63-12.92L67.63-12.92 67.63 2.07Q67.59 2.33 66.12 2.83 64.64 3.34 63.5 3.34L63.5 3.34 62.67 3.34 62.67 0.04 55.94 0.04 55.94 2.5Q55.94 2.68 55.5 3.01 55.06 3.34 54.1 3.63 53.13 3.91 52.03 3.91L52.03 3.91 51.15 3.91 51.15-12.52Q48.34-10.72 46.23-9.76L46.23-9.76 45.79-10.28Q48.69-12.3 51.15-14.63L51.15-14.63 51.15-16.83 52.78-16.22Q55.46-18.98 57.79-22.02L57.79-22.02 46.49-22.02 46.14-23.29 53.96-23.29 53.96-29.75 48.47-29.75 48.12-31.03 53.96-31.03 53.96-37.97 60.51-37.4Q60.42-36.34 58.89-36.12L58.89-36.12 58.89-31.03 59.5-31.03 61.7-34.15Q62.8-33.13 63.98-31.99L63.98-31.99Q65.43-34.98 65.96-36.43L65.96-36.43 71.59-33.97 71.59-36.87 77.3-34.15 81.39-34.15ZM103.27-15.42L103.27-15.42 108.98-14.19Q108.81-13.23 107.4-13.23L107.4-13.23Q106.96-7.65 106.35-5.49L106.35-5.49Q113.2-4.17 115.22-0.7L115.22-0.7Q116.46 1.36 115.4 2.81L115.4 2.81Q114.39 4.17 112.46 3.34L112.46 3.34Q112.32 3.3 112.19 3.21L112.19 3.21Q111.4 1.36 109.67-0.83 107.93-3.03 106.04-4.66L106.04-4.66Q104.85-1.58 101.89 0.48 98.92 2.55 93.03 3.91L93.03 3.91 92.59 3.12Q94.48 2.42 95.98 1.65 97.47 0.88 98.55-0.07 99.62-1.01 100.42-1.89 101.21-2.77 101.71-4.04 102.22-5.32 102.52-6.35 102.83-7.38 102.99-9.07 103.14-10.77 103.18-12.02 103.23-13.27 103.27-15.42ZM115.53-21.18L93.56-21.18 93.21-22.46 109.64-22.46 112.15-25.4Q114.92-23.42 116.67-21.93L116.67-21.93Q116.54-21.18 115.53-21.18L115.53-21.18ZM95.76-26.76L107.14-26.76 109.47-29.58Q112.15-27.64 113.86-26.19L113.86-26.19Q113.69-25.49 112.68-25.49L112.68-25.49 96.11-25.49 95.76-26.76ZM100.15-17.67L110.13-17.67 112.24-20.04 116.67-16.61Q116.19-16.04 115.14-15.78L115.14-15.78 115.14-5.93Q115.09-5.58 113.73-5.03 112.37-4.48 111.27-4.48L111.27-4.48 110.52-4.48 110.52-16.44 99.93-16.44 99.93-4.44Q99.93-4.04 98.59-3.52 97.25-2.99 95.89-2.99L95.89-2.99 95.23-2.99 95.23-19.6 100.15-17.67ZM122.17-31.33L126.04-31.33 126.83-32.26Q125.68-31.86 124.5-32.87L124.5-32.87Q124.37-34.37 123.22-36.52L123.22-36.52Q122.83-36.3 122.21-36.21L122.21-36.21Q122.17-34.54 122.17-31.33L122.17-31.33ZM133.29-9.58L133.73-9.49 132.71-1.71Q134.87 2.29 133.59 3.34L133.59 3.34Q132.5 4.31 131.02 4.06 129.55 3.82 128.28 3.08 127 2.33 126.04 1.27L126.04 1.27Q121.11-3.78 119.16-11.4 117.2-19.03 116.85-30.01L116.85-30.01 91.98-30.01 91.63-31.33 116.81-31.33Q116.76-33.57 116.76-38.23L116.76-38.23 122.52-37.66 122.48-37.71 122.96-37.97Q125.82-37.35 127.02-36.21 128.23-35.07 128.1-33.88L128.1-33.88 128.63-34.45Q131.62-32.34 133.51-30.72L133.51-30.72Q133.33-30.01 132.28-30.01L132.28-30.01 122.17-30.01Q122.3-20.7 123.84-14.13 125.38-7.56 129.29-3.87L129.29-3.87Q130.08-2.99 130.61-4L130.61-4Q132.1-6.59 133.29-9.58L133.29-9.58ZM140.54-37.53L140.54-37.53 140.93-37.84Q147.79-37.05 149.94-33.62L149.94-33.62Q151.22-31.6 150.21-29.93L150.21-29.93Q149.24-28.39 147.3-28.83L147.3-28.83Q146.73-29 146.16-29.31L146.16-29.31Q145.46-31.25 143.83-33.55 142.21-35.86 140.54-37.53ZM148.27-23.69L148.27-23.69 148.27-6.11Q153.11-8.22 155.61-9.32L155.61-9.32 155.83-8.88Q151.35-4.17 146.12 0.22L146.12 0.22Q145.59 1.49 144.71 2.07L144.71 2.07 140.98-3.52Q142.38-4.35 142.78-4.81 143.17-5.27 143.17-6.02L143.17-6.02 143.17-24.48 136.89-24.48 136.49-25.8 143.22-25.8 145.63-28.17 149.99-24.52Q149.55-23.91 148.27-23.69ZM167.08-21.67L170.9-21.67 173.8-25.53Q177.14-22.9 179.12-21.05L179.12-21.05Q178.95-20.35 177.8-20.35L177.8-20.35 167.08-20.35 167.08 1.93Q167.08 2.42 165.61 3.12 164.14 3.82 162.73 3.82L162.73 3.82 161.67 3.82 161.67-20.35 151.61-20.35 151.3-21.67 161.67-21.67 161.67-37.97 168.75-37.27Q168.62-36.21 167.08-35.99L167.08-35.99 167.08-21.67Z" transform="translate(-0.9700000286102295, 38.22999954223633)"></path></g> <!----> <!----> <!----> <!----> <!----> <!----> <!----></g></g> <g data-gra="path-slogan" fill-rule="" class="tp-slogan iconsvg-slogansvg" fill="#333" transform="translate(5,48.45000076293945)"><rect x="0" height="1" y="3.9750003814697266" width="37.03999710083008"></rect> <rect height="1" y="3.9750003814697266" width="37.03999710083008" x="131.1099967956543"></rect> <g transform="translate(40.03999710083008,0)"><g transform="scale(1)"><path d="M8.06-6.05L8.06-6.05L6.94-6.05Q6.52-7.78 4.55-7.83L4.55-7.83Q1.83-7.69 1.73-4.36L1.73-4.36Q1.73-0.80 4.59-0.80L4.59-0.80Q6.56-0.84 7.03-3.19L7.03-3.19L8.16-3.19Q7.64 0.05 4.36 0.14L4.36 0.14Q0.61 0 0.52-4.31L0.52-4.31Q0.70-8.63 4.55-8.81L4.55-8.81Q7.59-8.72 8.06-6.05ZM10.69-5.06L15.19-5.06L15.19-8.58L16.36-8.58L16.36 0L15.19 0L15.19-3.98L10.69-3.98L10.69 0L9.52 0L9.52-8.58L10.69-8.58L10.69-5.06ZM19.45-1.03L24.61-1.03L24.61 0L18.28 0L18.28-8.58L24.52-8.58L24.52-7.59L19.45-7.59L19.45-4.92L24.14-4.92L24.14-3.89L19.45-3.89L19.45-1.03ZM27.52-8.58L31.83-1.64L31.83-8.58L32.95-8.58L32.95 0L31.64 0L27.28-6.94L27.23-6.94L27.23 0L26.11 0L26.11-8.58L27.52-8.58ZM41.16-3.61L38.53-3.61L38.53-4.59L42.28-4.59L42.28 0L41.53 0L41.25-1.08Q40.27 0.09 38.44 0.14L38.44 0.14Q36.70 0.14 35.77-0.75L35.77-0.75Q34.36-2.06 34.41-4.36L34.41-4.36Q34.73-8.63 38.48-8.81L38.48-8.81Q41.67-8.63 42.14-6L42.14-6L41.02-6Q40.55-7.78 38.44-7.83L38.44-7.83Q35.77-7.64 35.63-4.31L35.63-4.31Q35.63-0.75 38.48-0.75L38.48-0.75Q39.52-0.75 40.27-1.31L40.27-1.31Q41.20-2.06 41.16-3.61L41.16-3.61ZM47.58 0L44.11 0L44.11-8.58L47.63-8.58Q51.09-8.39 51.23-4.41L51.23-4.41Q51.05-0.09 47.58 0L47.58 0ZM47.44-7.64L45.28-7.64L45.28-0.98L47.53-0.98Q49.97-1.13 50.06-4.31L50.06-4.31Q50.02-7.55 47.44-7.64L47.44-7.64ZM58.36-3.19L58.36-8.58L59.53-8.58L59.53-3.05Q59.39 0.05 56.02 0.14L56.02 0.14Q52.88 0.05 52.73-2.86L52.73-2.86L52.73-8.58L53.91-8.58L53.91-3.19Q53.95-0.84 56.06-0.80L56.06-0.80Q58.36-0.84 58.36-3.19L58.36-3.19ZM65.95-1.03L71.11-1.03L71.11 0L64.78 0L64.78-8.58L71.02-8.58L71.02-7.59L65.95-7.59L65.95-4.92L70.64-4.92L70.64-3.89L65.95-3.89L65.95-1.03ZM76.73-3.70L73.92-3.70L73.92 0L72.75 0L72.75-8.58L76.73-8.58Q79.59-8.58 79.59-6.28L79.59-6.28Q79.59-4.88 78.38-4.22L78.38-4.22Q79.41-3.94 79.41-2.58L79.41-2.58L79.50-1.03Q79.45-0.38 79.92-0.19L79.92-0.19L79.92 0L78.47 0Q78.33-0.61 78.28-2.16L78.28-2.16Q78.33-3.70 76.73-3.70L76.73-3.70ZM76.83-7.64L73.92-7.64L73.92-4.69L76.64-4.69Q78.38-4.69 78.38-6.19L78.38-6.19Q78.38-7.64 76.83-7.64L76.83-7.64ZM80.53-1.92L80.53-2.77L81.61-2.77L81.61-2.16Q81.61-0.75 82.92-0.75L82.92-0.75Q84.28-0.75 84.28-2.25L84.28-2.25L84.28-8.58L85.45-8.58L85.45-2.30Q85.41 0.09 82.97 0.14L82.97 0.14Q80.67 0.09 80.53-1.92L80.53-1.92ZM87.42-8.58L88.59-8.58L88.59 0L87.42 0L87.42-8.58Z" transform="translate(-0.515625, 8.8125)"></path></g></g></g></g></g><defs v-gra="od"></defs></svg>